<?xml version="1.0" encoding="UTF-8" standalone="no"?>
<!DOCTYPE svg PUBLIC "-//W3C//DTD SVG 1.1//EN" "http://www.w3.org/Graphics/SVG/1.1/DTD/svg11.dtd">
<svg width="100%" height="100%" viewBox="0 0 1598 1466" version="1.1" xmlns="http://www.w3.org/2000/svg" xmlns:xlink="http://www.w3.org/1999/xlink" xml:space="preserve" xmlns:serif="http://www.serif.com/" style="fill-rule:evenodd;clip-rule:evenodd;stroke-linejoin:round;stroke-miterlimit:2;">
    <g transform="matrix(1,0,0,1,-887.448,-478.531)">
        <g transform="matrix(4.16667,0,0,4.16667,0,0)">
            <g transform="matrix(1,0,0,1,334.63,455.218)">
                <path d="M0,-14.384L-5.255,-13.886L-6.362,-19.916L-17.481,-19.916L-17.481,-8.354L-1.881,-8.354L-1.881,-3.154L-17.481,-3.154L-17.481,5.531L-11.451,5.531L-11.451,10.787L-27.771,10.787L-27.771,5.531L-23.622,5.531L-23.622,-19.916L-27.771,-19.916L-27.771,-25.171L-1.106,-25.171L0,-14.384Z" style="fill:rgb(29,29,27);fill-rule:nonzero;"/>
            </g>
        </g>
        <g transform="matrix(4.16667,0,0,4.16667,0,0)">
            <g transform="matrix(1,0,0,1,365.167,430.047)">
                <path d="M0,35.958L-14.383,35.958L-14.383,30.702L-10.234,30.702L-10.234,5.255L-14.383,5.255L-14.383,0L0,0L0,5.255L-4.094,5.255L-4.094,30.702L0,30.702L0,35.958Z" style="fill:rgb(29,29,27);fill-rule:nonzero;"/>
            </g>
        </g>
        <g transform="matrix(4.16667,0,0,4.16667,0,0)">
            <g transform="matrix(1,0,0,1,411.003,430.047)">
                <path d="M0,35.958L-26.609,35.958L-26.609,30.702L-22.46,30.702L-22.46,5.255L-26.609,5.255L-26.609,0L-10.954,0L-10.954,5.255L-16.32,5.255L-16.32,30.702L-5.256,30.702L-4.149,23.233L1.106,23.676L0,35.958Z" style="fill:rgb(29,29,27);fill-rule:nonzero;"/>
            </g>
        </g>
        <g transform="matrix(4.16667,0,0,4.16667,0,0)">
            <g transform="matrix(1,0,0,1,472.005,460.75)">
                <path d="M0,-25.448L-4.535,-25.448L-4.535,-0.001L-0.442,-0.001L-0.442,5.255L-14.217,5.255L-14.217,-0.001L-10.676,-0.001L-10.676,-17.205L-10.898,-17.205L-21.353,2.71L-24.119,2.71L-35.128,-17.703L-35.35,-17.703L-35.35,-0.001L-31.587,-0.001L-31.587,5.255L-45.196,5.255L-45.196,-0.001L-41.104,-0.001L-41.104,-25.448L-45.639,-25.448L-45.639,-30.703L-35.902,-30.703L-22.626,-6.196L-22.404,-6.196L-9.791,-30.703L0,-30.703L0,-25.448Z" style="fill:rgb(29,29,27);fill-rule:nonzero;"/>
            </g>
        </g>
        <g transform="matrix(4.16667,0,0,4.16667,0,0)">
            <g transform="matrix(1,0,0,1,513.923,440.613)">
                <path d="M0,14.826C0,18.404 -1.244,21.152 -3.733,23.069C-6.223,24.986 -9.515,25.945 -13.608,25.945C-16.042,25.945 -18.394,25.65 -20.661,25.06C-22.93,24.471 -24.729,23.622 -26.056,22.515L-25.06,14.273L-20.136,14.77L-20.247,19.197C-19.03,19.824 -17.914,20.22 -16.9,20.386C-15.886,20.552 -14.936,20.635 -14.051,20.635C-11.912,20.635 -10.133,20.294 -8.713,19.611C-7.294,18.929 -6.582,17.555 -6.582,15.489C-6.582,13.241 -7.395,11.738 -9.017,10.981C-10.641,10.226 -12.502,9.644 -14.604,9.238C-16.301,8.907 -18.016,8.465 -19.749,7.911C-21.483,7.357 -22.921,6.436 -24.063,5.145C-25.207,3.854 -25.778,1.956 -25.778,-0.554C-25.778,-4.315 -24.498,-7.016 -21.935,-8.657C-19.371,-10.298 -16.504,-11.119 -13.332,-11.119C-11.119,-11.119 -8.972,-10.787 -6.887,-10.123C-4.804,-9.46 -3.172,-8.593 -1.99,-7.524L-1.659,0.055L-6.582,0.498L-7.08,-4.15C-8.113,-4.738 -9.146,-5.145 -10.178,-5.365C-11.211,-5.587 -12.207,-5.697 -13.165,-5.697C-14.899,-5.697 -16.338,-5.347 -17.48,-4.647C-18.624,-3.945 -19.196,-2.821 -19.196,-1.273C-19.196,0.536 -18.486,1.763 -17.066,2.407C-15.646,3.052 -14.051,3.578 -12.28,3.983C-10.769,4.315 -9.055,4.758 -7.136,5.311C-5.219,5.864 -3.55,6.85 -2.129,8.27C-0.71,9.691 0,11.876 0,14.826" style="fill:rgb(29,29,27);fill-rule:nonzero;"/>
            </g>
        </g>
        <g transform="matrix(4.16667,0,0,4.16667,0,0)">
            <g transform="matrix(0,-1,-1,0,284.371,446.342)">
                <path d="M-3.767,-3.767C-5.847,-3.767 -7.534,-2.08 -7.534,0.001C-7.534,2.08 -5.847,3.767 -3.767,3.767C-1.687,3.767 0.001,2.08 0.001,0.001C0.001,-2.08 -1.687,-3.767 -3.767,-3.767" style="fill:rgb(29,29,27);fill-rule:nonzero;"/>
            </g>
        </g>
        <g transform="matrix(4.16667,0,0,4.16667,0,0)">
            <g transform="matrix(0,-1,-1,0,547.316,446.342)">
                <path d="M-3.767,-3.767C-5.847,-3.767 -7.534,-2.08 -7.534,0.001C-7.534,2.08 -5.847,3.767 -3.767,3.767C-1.687,3.767 0.001,2.08 0.001,0.001C0.001,-2.08 -1.687,-3.767 -3.767,-3.767" style="fill:rgb(29,29,27);fill-rule:nonzero;"/>
            </g>
        </g>
        <g transform="matrix(4.16667,0,0,4.16667,0,0)">
            <g transform="matrix(1,0,0,1,280.29,250.231)">
                <path d="M0,21.54L-0.039,149.082L-55.636,149.057L0,21.54ZM23.73,-15.23C30.656,-15.23 35.847,-13.574 39.158,-10.306C42.283,-7.215 44.142,38.633 44.142,46.469C44.142,52.625 42.36,57.425 38.845,60.732C35.32,64.048 30.407,65.73 24.242,65.73L8.184,65.73L8.184,2.783L16.043,-15.23L23.73,-15.23ZM60.014,-116.011L103.053,-24.251L65.812,-24.251L65.812,149.113L8.184,149.086L8.184,73.054L24.882,73.054C33.157,73.054 39.938,70.731 45.039,66.149C50.154,61.554 52.748,54.847 52.748,46.213C52.748,40.028 50.682,-9.632 46.303,-14.899C42.003,-20.065 34.538,-22.685 24.114,-22.685L19.295,-22.685L60.014,-116.011ZM268.685,65.685L252.662,65.685L252.662,73.139L262.826,73.139L240.306,112.231L226.563,112.231L226.563,-0.308L227.221,-0.308C240.997,17.026 252.375,31.371 255.67,35.602L268.685,65.685ZM247.014,115.099L271.82,72.933L304.822,149.221L271.819,149.207L247.014,115.099ZM226.563,119.556L240.594,119.556L262.218,149.202L226.563,149.186L226.563,119.556ZM168.167,-74.523C178.704,-61.293 199.451,-35.236 218.212,-11.641L218.212,149.182L194.754,149.171L168.167,-74.523ZM144.801,72.928L177.556,72.928L186.034,149.167L136.068,149.144L144.801,72.928ZM145.3,66.115L161.923,-72.67L177.306,66.115L145.3,66.115ZM112.293,134.434L104.991,133.705L102.739,149.129L74.035,149.117L74.035,73.2L107.118,73.2L107.118,65.746L74.035,65.746L74.035,-16.796L104.832,-16.796L107.399,0.796L114.831,-0.078L112.173,-24.251L110.862,-24.251L154.083,-74.936L127.722,149.141L110.768,149.133L112.293,134.434ZM262.2,31.214C257.918,25.702 161.642,-94.979 161.642,-94.979L106.466,-31.08L59.96,-135.384L-67.303,156.924L316.145,156.924L262.2,31.214Z" style="fill:rgb(29,29,27);fill-rule:nonzero;"/>
            </g>
        </g>
    </g>
</svg>
