<?xml version="1.0" encoding="UTF-8" standalone="no"?>
<!-- Created with Inkscape (http://www.inkscape.org/) -->

<svg
   width="180.62222mm"
   height="180.62222mm"
   viewBox="0 0 180.62222 180.62222"
   version="1.1"
   id="svg5"
   inkscape:version="1.1 (c68e22c387, 2021-05-23)"
   sodipodi:docname="facebook-w.svg"
   xmlns:inkscape="http://www.inkscape.org/namespaces/inkscape"
   xmlns:sodipodi="http://sodipodi.sourceforge.net/DTD/sodipodi-0.dtd"
   xmlns="http://www.w3.org/2000/svg"
   xmlns:svg="http://www.w3.org/2000/svg">
  <sodipodi:namedview
     id="namedview7"
     pagecolor="#ffffff"
     bordercolor="#666666"
     borderopacity="1.0"
     inkscape:pageshadow="2"
     inkscape:pageopacity="0.0"
     inkscape:pagecheckerboard="0"
     inkscape:document-units="mm"
     showgrid="false"
     inkscape:zoom="0.69664703"
     inkscape:cx="553.36488"
     inkscape:cy="475.13301"
     inkscape:window-width="1920"
     inkscape:window-height="986"
     inkscape:window-x="-11"
     inkscape:window-y="-11"
     inkscape:window-maximized="1"
     inkscape:current-layer="g550" />
  <defs
     id="defs2" />
  <g
     inkscape:label="Warstwa 1"
     inkscape:groupmode="layer"
     id="layer1"
     transform="translate(-19.449757,-22.867917)">
    <g
       style="fill:#000000"
       id="g550"
       transform="matrix(0.35277778,0,0,0.35277778,19.449757,22.867917)">
      <path
         d="m 297.27734,508.66797 c -2.13281,0.34765 -4.27343,0.66797 -6.42187,0.96094 2.14844,-0.29297 4.28906,-0.61328 6.42187,-0.96094 z m 0,0"
         id="path508"
         style="fill:#000000" />
      <path
         d="m 302.39844,507.79297 c -1.01953,0.1875 -2.03907,0.35937 -3.0586,0.53515 1.01953,-0.17578 2.03907,-0.34765 3.0586,-0.53515 z m 0,0"
         id="path510"
         style="fill:#000000" />
      <path
         d="m 285.13672,510.33984 c -2.4961,0.28125 -5.00781,0.53125 -7.52735,0.74219 2.51954,-0.21094 5.03125,-0.46094 7.52735,-0.74219 z m 0,0"
         id="path512"
         style="fill:#000000" />
      <path
         d="m 290.05469,509.73828 c -1.19922,0.16016 -2.40625,0.30859 -3.60938,0.44922 1.20313,-0.14063 2.41016,-0.28906 3.60938,-0.44922 z m 0,0"
         id="path514"
         style="fill:#000000" />
      <path
         d="m 309.36719,506.41016 c -0.89844,0.1914 -1.80078,0.38281 -2.70313,0.5664 0.90235,-0.18359 1.80469,-0.375 2.70313,-0.5664 z m 0,0"
         id="path516"
         style="fill:#000000" />
      <path
         d="m 326.66406,502.11328 c -0.72656,0.20703 -1.45312,0.40234 -2.17969,0.60547 0.72657,-0.20313 1.45313,-0.39844 2.17969,-0.60547 z m 0,0"
         id="path518"
         style="fill:#000000" />
      <path
         d="m 321.43359,503.54297 c -0.78906,0.20703 -1.58203,0.41797 -2.375,0.61719 0.79297,-0.19922 1.58594,-0.40625 2.375,-0.61719 z m 0,0"
         id="path520"
         style="fill:#000000" />
      <path
         d="m 314.58984,505.25391 c -0.83593,0.19531 -1.67968,0.3789 -2.52343,0.5664 0.84375,-0.1875 1.6875,-0.37109 2.52343,-0.5664 z m 0,0"
         id="path522"
         style="fill:#000000" />
      <path
         d="m 277.52734,511.08984 c -1.34765,0.11328 -2.69531,0.21485 -4.04687,0.30469 1.35156,-0.0898 2.69922,-0.1914 4.04687,-0.30469 z m 0,0"
         id="path524"
         style="fill:#000000" />
      <path
         d="M 512,256 C 512,114.63672 397.36328,0 256,0 114.63672,0 0,114.63672 0,256 c 0,141.36328 114.63672,256 256,256 1.50391,0 3,-0.0312 4.5,-0.0586 V 312.65625 h -55 v -64.09766 h 55 v -47.16797 c 0,-54.70312 33.39453,-84.47656 82.19141,-84.47656 23.36718,0 43.45312,1.74219 49.30859,2.51953 v 57.17188 h -33.64844 c -26.54687,0 -31.6875,12.61719 -31.6875,31.1289 v 40.82422 h 63.47656 l -8.27343,64.09766 H 326.66406 V 502.10937 C 433.66797,471.43359 512,372.85156 512,256 Z m 0,0"
         id="path526"
         style="fill:#ffffff;fill-opacity:1" />
      <path
         d="m 272.91406,511.42969 c -2.66406,0.17187 -5.33984,0.30859 -8.02344,0.39843 2.6836,-0.0898 5.35938,-0.22656 8.02344,-0.39843 z m 0,0"
         id="path528"
         style="fill:#000000" />
      <path
         d="m 264.75391,511.83594 c -1.41407,0.0469 -2.83204,0.082 -4.25,0.10547 1.41796,-0.0234 2.83593,-0.0586 4.25,-0.10547 z m 0,0"
         id="path530"
         style="fill:#000000" />
    </g>
  </g>
</svg>
