<?xml version="1.0" encoding="UTF-8" standalone="no"?>
<!-- Created with Inkscape (http://www.inkscape.org/) -->

<svg
   width="180.62222mm"
   height="180.62222mm"
   viewBox="0 0 180.62222 180.62222"
   version="1.1"
   id="svg5"
   inkscape:version="1.1 (c68e22c387, 2021-05-23)"
   sodipodi:docname="instagram-w.svg"
   xmlns:inkscape="http://www.inkscape.org/namespaces/inkscape"
   xmlns:sodipodi="http://sodipodi.sourceforge.net/DTD/sodipodi-0.dtd"
   xmlns="http://www.w3.org/2000/svg"
   xmlns:svg="http://www.w3.org/2000/svg">
  <sodipodi:namedview
     id="namedview7"
     pagecolor="#ffffff"
     bordercolor="#666666"
     borderopacity="1.0"
     inkscape:pageshadow="2"
     inkscape:pageopacity="0.0"
     inkscape:pagecheckerboard="0"
     inkscape:document-units="mm"
     showgrid="false"
     inkscape:zoom="0.69664703"
     inkscape:cx="351.68455"
     inkscape:cy="479.43935"
     inkscape:window-width="1920"
     inkscape:window-height="986"
     inkscape:window-x="-11"
     inkscape:window-y="-11"
     inkscape:window-maximized="1"
     inkscape:current-layer="layer1" />
  <defs
     id="defs2" />
  <g
     inkscape:label="Warstwa 1"
     inkscape:groupmode="layer"
     id="layer1"
     transform="translate(-11.853854,-21.72853)">
    <g
       style="fill:#ffffff;fill-opacity:1"
       id="g694"
       transform="matrix(0.35277778,0,0,0.35277778,11.853854,21.72853)">
      <path
         d="m 305,256 c 0,27.0625 -21.9375,49 -49,49 -27.0625,0 -49,-21.9375 -49,-49 0,-27.0625 21.9375,-49 49,-49 27.0625,0 49,21.9375 49,49 z m 0,0"
         id="path679"
         style="fill:#ffffff;fill-opacity:1" />
      <path
         d="m 370.59375,169.30469 c -2.35547,-6.38282 -6.11328,-12.16016 -10.99609,-16.90235 -4.74219,-4.88281 -10.51563,-8.64062 -16.90235,-10.99609 C 337.51563,139.39453 329.73438,137 315.40234,136.34766 299.89844,135.64062 295.25,135.48828 256,135.48828 c -39.25391,0 -43.90234,0.14844 -59.40234,0.85547 -14.33203,0.65625 -22.11719,3.05078 -27.29297,5.0625 -6.38672,2.35547 -12.16406,6.11328 -16.90235,10.99609 -4.88281,4.74219 -8.64062,10.51563 -11,16.90235 -2.01171,5.17968 -4.40625,12.96484 -5.05859,27.29687 -0.70703,15.5 -0.85937,20.14844 -0.85937,59.40235 0,39.25 0.15234,43.89843 0.85937,59.40234 0.65234,14.33203 3.04688,22.11328 5.05859,27.29297 2.35938,6.38672 6.11329,12.16015 10.9961,16.90234 4.74219,4.88281 10.51562,8.64063 16.90234,10.9961 5.17969,2.01562 12.96485,4.41015 27.29688,5.0625 15.5,0.70703 20.14453,0.85546 59.39843,0.85546 39.25782,0 43.90625,-0.14843 59.40235,-0.85546 14.33203,-0.65235 22.11719,-3.04688 27.29687,-5.0625 12.82032,-4.94532 22.95313,-15.07813 27.89844,-27.89844 2.01172,-5.17969 4.40625,-12.96094 5.0625,-27.29297 0.70703,-15.50391 0.85547,-20.15234 0.85547,-59.40234 0,-39.25391 -0.14844,-43.90235 -0.85547,-59.40235 -0.65234,-14.33203 -3.04687,-22.11719 -5.0625,-27.29687 z M 256,331.48437 c -41.69141,0 -75.48828,-33.79296 -75.48828,-75.48437 0,-41.69141 33.79687,-75.48438 75.48828,-75.48438 41.6875,0 75.48437,33.79297 75.48437,75.48438 0,41.69141 -33.79687,75.48437 -75.48437,75.48437 z m 78.46875,-136.3125 c -9.74219,0 -17.64063,-7.89843 -17.64063,-17.64062 0,-9.74219 7.89844,-17.64063 17.64063,-17.64063 9.74219,0 17.64062,7.89844 17.64062,17.64063 -0.004,9.74219 -7.89843,17.64062 -17.64062,17.64062 z m 0,0"
         id="path681"
         style="fill:#ffffff;fill-opacity:1" />
      <path
         d="M 256,0 C 114.63672,0 0,114.63672 0,256 0,397.36328 114.63672,512 256,512 397.36328,512 512,397.36328 512,256 512,114.63672 397.36328,0 256,0 Z m 146.11328,316.60547 c -0.71094,15.64844 -3.19922,26.33203 -6.83203,35.68359 -7.63672,19.7461 -23.24609,35.35547 -42.99219,42.99219 -9.34765,3.63281 -20.03515,6.11719 -35.67968,6.83203 C 300.93359,402.82813 295.92578,403 256.00391,403 c -39.92578,0 -44.92969,-0.17187 -60.60938,-0.88672 -15.64453,-0.71484 -26.33203,-3.19922 -35.67969,-6.83203 -9.8125,-3.69141 -18.69531,-9.47656 -26.03906,-16.95703 -7.47656,-7.33984 -13.26172,-16.22656 -16.95312,-26.03516 -3.63282,-9.34765 -6.1211,-20.03515 -6.83203,-35.67968 C 109.16797,300.92969 109,295.92188 109,256 c 0,-39.92187 0.16797,-44.92969 0.88672,-60.60547 0.71094,-15.64844 3.19531,-26.33203 6.82812,-35.68359 3.69141,-9.8086 9.48047,-18.69531 16.96094,-26.03516 7.33985,-7.48047 16.22656,-13.26562 26.03516,-16.95703 9.35156,-3.63281 20.03515,-6.11719 35.68359,-6.83203 C 211.07031,109.17188 216.07813,109 256,109 c 39.92187,0 44.92969,0.17188 60.60547,0.89063 15.64844,0.71093 26.33203,3.19531 35.68359,6.82421 9.8086,3.69141 18.69531,9.48047 26.03906,16.96094 7.47657,7.34375 13.26563,16.22656 16.95313,26.03516 3.63672,9.35156 6.12109,20.03515 6.83594,35.68359 C 402.83203,211.07031 403,216.07813 403,256 c 0,39.92188 -0.16797,44.92969 -0.88672,60.60547 z m 0,0"
         id="path683"
         style="fill:#ffffff;fill-opacity:1" />
    </g>
  </g>
</svg>
