<?xml version="1.0" encoding="UTF-8" standalone="no"?>
<!-- Created with Inkscape (http://www.inkscape.org/) -->

<svg
   width="180.62222mm"
   height="180.62222mm"
   viewBox="0 0 180.62222 180.62222"
   version="1.1"
   id="svg5"
   inkscape:version="1.1 (c68e22c387, 2021-05-23)"
   sodipodi:docname="youtube-w.svg"
   xmlns:inkscape="http://www.inkscape.org/namespaces/inkscape"
   xmlns:sodipodi="http://sodipodi.sourceforge.net/DTD/sodipodi-0.dtd"
   xmlns="http://www.w3.org/2000/svg"
   xmlns:svg="http://www.w3.org/2000/svg">
  <sodipodi:namedview
     id="namedview7"
     pagecolor="#ffffff"
     bordercolor="#666666"
     borderopacity="1.0"
     inkscape:pageshadow="2"
     inkscape:pageopacity="0.0"
     inkscape:pagecheckerboard="0"
     inkscape:document-units="mm"
     showgrid="false"
     inkscape:zoom="0.69664703"
     inkscape:cx="337.33008"
     inkscape:cy="404.7961"
     inkscape:window-width="1920"
     inkscape:window-height="986"
     inkscape:window-x="-11"
     inkscape:window-y="-11"
     inkscape:window-maximized="1"
     inkscape:current-layer="layer1"
     fit-margin-top="0"
     fit-margin-left="0"
     fit-margin-right="0"
     fit-margin-bottom="0" />
  <defs
     id="defs2" />
  <g
     inkscape:label="Warstwa 1"
     inkscape:groupmode="layer"
     id="layer1"
     transform="translate(-16.411395,-41.477891)">
    <g
       style="fill:#ffffff;fill-opacity:1"
       id="g1378"
       transform="matrix(0.35277778,0,0,0.35277778,16.411395,41.477891)">
      <path
         d="M 224.11328,303.96094 307.38672,256 224.11328,208.03906 Z m 0,0"
         id="path1366"
         style="fill:#ffffff;fill-opacity:1" />
      <path
         d="M 256,0 C 114.63672,0 0,114.63672 0,256 0,397.36328 114.63672,512 256,512 397.36328,512 512,397.36328 512,256 512,114.63672 397.36328,0 256,0 Z m 159.96094,256.26172 c 0,0 0,51.91797 -6.58594,76.95312 -3.69141,13.70313 -14.49609,24.50782 -28.19922,28.19532 C 356.14062,368 256,368 256,368 c 0,0 -99.87891,0 -125.17578,-6.85156 -13.70313,-3.6875 -24.50781,-14.4961 -28.19922,-28.19922 C 96.035156,308.17969 96.035156,256 96.035156,256 c 0,0 0,-51.91406 6.589844,-76.94922 3.6875,-13.70312 14.75781,-24.77344 28.19922,-28.46094 C 155.85937,144 256,144 256,144 c 0,0 100.14062,0 125.17578,6.85156 13.70313,3.6875 24.50781,14.4961 28.19922,28.19922 6.85156,25.03516 6.58594,77.21094 6.58594,77.21094 z m 0,0"
         id="path1368"
         style="fill:#ffffff;fill-opacity:1" />
    </g>
  </g>
</svg>
